<?xml version="1.0" encoding="UTF-8" standalone="no"?>
<svg
   xmlns:dc="http://purl.org/dc/elements/1.1/"
   xmlns:cc="http://creativecommons.org/ns#"
   xmlns:rdf="http://www.w3.org/1999/02/22-rdf-syntax-ns#"
   xmlns:svg="http://www.w3.org/2000/svg"
   xmlns="http://www.w3.org/2000/svg"
   viewBox="0 0 1004.96 450.06668"
   height="450.06668"
   width="1004.96"
   xml:space="preserve"
   id="svg2"
   version="1.1"><metadata
     id="metadata8"><rdf:RDF><cc:Work
         rdf:about=""><dc:format>image/svg+xml</dc:format><dc:type
           rdf:resource="http://purl.org/dc/dcmitype/StillImage" /></cc:Work></rdf:RDF></metadata><defs
     id="defs6"><clipPath
       id="clipPath28"
       clipPathUnits="userSpaceOnUse"><path
         id="path26"
         d="m 2329.68,3149.04 v -63.01 c 0,-125.09 101.4,-226.49 226.48,-226.49 h 176.88 c 125.08,0 169.96,-38.39 169.96,-163.47 V 226.48 C 2903,101.398 3004.4,0 3129.49,0 h 40.83 c 125.08,0 226.48,101.398 226.48,226.48 v 2922.56 c 0,125.08 -101.4,226.48 -226.48,226.48 h -614.16 c -125.08,0 -226.48,-101.4 -226.48,-226.48 z" /></clipPath><linearGradient
       id="linearGradient36"
       spreadMethod="pad"
       gradientTransform="matrix(-1222.13,3277.54,3277.54,1222.13,3655.56,331.68)"
       gradientUnits="userSpaceOnUse"
       y2="0"
       x2="1"
       y1="0"
       x1="0"><stop
         id="stop30"
         offset="0"
         style="stop-opacity:1;stop-color:#61c9af" /><stop
         id="stop32"
         offset="0.491383"
         style="stop-opacity:1;stop-color:#57aae3" /><stop
         id="stop34"
         offset="1"
         style="stop-opacity:1;stop-color:#6a5ab2" /></linearGradient></defs><g
     transform="matrix(1.3333333,0,0,-1.3333333,0,450.06667)"
     id="g10"><g
       transform="scale(0.1)"
       id="g12"><path
         id="path14"
         style="fill:#2e3371;fill-opacity:1;fill-rule:nonzero;stroke:none"
         d="m 5081.94,1936.4 c -69.06,57.8 -148,85.99 -238.21,85.99 -90.21,0 -166.31,-33.83 -229.74,-101.48 -63.43,-67.67 -94.44,-148.01 -94.44,-242.45 0,-94.42 32.42,-174.76 97.25,-241.01 64.85,-66.25 145.19,-100.08 239.62,-100.08 94.44,0 170.55,28.18 228.33,83.16 l 83.17,-93.02 c -77.52,-77.52 -184.64,-115.58 -319.95,-115.58 -131.09,0 -241.03,45.1 -329.83,136.71 -88.8,91.63 -133.89,201.57 -133.89,331.25 0,129.66 45.09,241.02 135.3,332.63 90.2,91.62 198.75,138.13 327,138.13 132.5,0 239.62,-38.05 322.78,-112.76 l -87.39,-101.49" /><path
         id="path16"
         style="fill:#2e3371;fill-opacity:1;fill-rule:nonzero;stroke:none"
         d="m 5721.84,1335.96 c 91.63,0 169.15,33.83 232.58,100.08 63.43,66.24 95.83,146.57 95.83,241.03 0,94.43 -32.4,176.17 -95.83,243.84 -63.43,67.65 -140.95,101.48 -232.58,101.48 -90.2,0 -167.72,-33.83 -231.15,-101.48 -63.43,-67.67 -95.85,-148.01 -95.85,-242.45 0,-94.42 32.42,-174.76 95.85,-241.01 63.43,-66.25 140.95,-100.08 231.15,-100.08 z m 0,813.28 c 128.29,0 238.21,-46.51 328.41,-138.12 90.22,-91.63 135.32,-202.98 135.32,-332.66 0,-128.25 -45.1,-238.19 -135.32,-329.82 -90.2,-91.61 -198.73,-136.71 -326.98,-136.71 -128.27,0 -236.8,46.51 -327.01,138.14 -90.21,91.61 -135.31,201.55 -135.31,329.82 0,129.66 45.1,241.02 135.31,332.63 90.21,91.62 198.74,138.13 327.01,138.13 l -1.43,-1.41" /><path
         id="path18"
         style="fill:#2e3371;fill-opacity:1;fill-rule:nonzero;stroke:none"
         d="m 6392.75,2133.73 h 126.86 v -903.48 h -126.86 v 903.48" /><path
         id="path20"
         style="fill:#2e3371;fill-opacity:1;fill-rule:nonzero;stroke:none"
         d="m 6900.16,1926.54 v -696.29 h -128.27 v 903.48 h 138.13 l 500.37,-700.51 v 700.51 h 126.85 v -903.48 h -138.12 l -498.96,696.29" /><g
         id="g22"><g
           clip-path="url(#clipPath28)"
           id="g24"><path
             id="path38"
             style="fill:url(#linearGradient36);fill-opacity:1;fill-rule:nonzero;stroke:none"
             d="m 2329.68,3149.04 v -63.01 c 0,-125.09 101.4,-226.49 226.48,-226.49 h 176.88 c 125.08,0 169.96,-38.39 169.96,-163.47 V 226.48 C 2903,101.398 3004.4,0 3129.49,0 h 40.83 c 125.08,0 226.48,101.398 226.48,226.48 v 2922.56 c 0,125.08 -101.4,226.48 -226.48,226.48 h -614.16 c -125.08,0 -226.48,-101.4 -226.48,-226.48" /></g></g><path
         id="path40"
         style="fill:#2e3371;fill-opacity:1;fill-rule:nonzero;stroke:none"
         d="M 1924.59,1265.62 C 1926.51,1028.73 1861.3,841.871 1730.72,710.23 1604.8,583.281 1419.58,513.352 1209.28,513.352 c -135.11,0 -261.03,33.5 -368.292,95 L 1701.94,2691.75 c 10.06,-8.86 20.45,-17.38 29.86,-26.87 129.86,-130.9 194.71,-316.06 192.79,-550.79 z m -1421.149,0.45 v 848.46 c -1.968,236 62.93,422.12 192.891,553.15 124.414,125.42 306.568,194.5 512.948,194.5 172.09,0 326.78,-47.41 446.66,-133.81 L 792.453,638.859 c -32.015,22.27 -62.379,46.77 -89.902,74.539 C 570.313,846.781 501.473,1037.72 503.441,1266.07 Z M 2098.57,3023.36 c -222.38,223.81 -544.76,352.16 -884.58,352.16 -340.705,0 -663.306,-128.79 -885.076,-353.38 C 109.301,2799.69 -4.39453,2495 0.128906,2141.68 V 1239.5 C -4.39453,882.73 109.742,576.129 330.184,352.852 551.617,128.602 873.723,0 1213.99,0 c 339.32,0 661.27,128.18 883.36,351.66 221.72,223.141 337.73,530.051 335.47,887.12 v 902.54 c 2.26,354.68 -113.32,659.7 -334.25,882.04" /></g></g></svg>