<?xml version="1.0" encoding="UTF-8" standalone="no"?>
<svg
   xmlns:dc="http://purl.org/dc/elements/1.1/"
   xmlns:cc="http://creativecommons.org/ns#"
   xmlns:rdf="http://www.w3.org/1999/02/22-rdf-syntax-ns#"
   xmlns:svg="http://www.w3.org/2000/svg"
   xmlns="http://www.w3.org/2000/svg"
   viewBox="0 0 1122.52 793.70667"
   height="793.70667"
   width="1122.52"
   xml:space="preserve"
   id="svg2"
   version="1.1"><metadata
     id="metadata8"><rdf:RDF><cc:Work
         rdf:about=""><dc:format>image/svg+xml</dc:format><dc:type
           rdf:resource="http://purl.org/dc/dcmitype/StillImage" /></cc:Work></rdf:RDF></metadata><defs
     id="defs6"><clipPath
       id="clipPath18"
       clipPathUnits="userSpaceOnUse"><path
         id="path16"
         d="M 0,595.28 H 841.89 V 0 H 0 Z" /></clipPath></defs><g
     transform="matrix(1.3333333,0,0,-1.3333333,0,793.70667)"
     id="g10"><g
       id="g12"><g
         clip-path="url(#clipPath18)"
         id="g14"><g
           transform="translate(552.2773,320.2673)"
           id="g20"><path
             id="path22"
             style="fill:#ffffff;fill-opacity:1;fill-rule:nonzero;stroke:none"
             d="m 0,0 c -6.907,5.78 -14.801,8.598 -23.821,8.598 -9.021,0 -16.631,-3.382 -22.974,-10.148 -6.343,-6.766 -9.444,-14.8 -9.444,-24.244 0,-9.442 3.242,-17.477 9.724,-24.102 6.486,-6.625 14.519,-10.007 23.962,-10.007 9.444,0 17.055,2.818 22.834,8.316 l 8.316,-9.303 c -7.752,-7.752 -18.464,-11.557 -31.994,-11.557 -13.11,0 -24.104,4.509 -32.983,13.671 -8.881,9.163 -13.391,20.157 -13.391,33.125 0,12.965 4.51,24.101 13.532,33.262 9.02,9.163 19.874,13.813 32.7,13.813 13.25,0 23.962,-3.805 32.277,-11.275 z" /></g><g
           transform="translate(616.2676,260.2234)"
           id="g24"><path
             id="path26"
             style="fill:#ffffff;fill-opacity:1;fill-rule:nonzero;stroke:none"
             d="m 0,0 c 9.162,0 16.914,3.383 23.257,10.008 6.343,6.624 9.584,14.657 9.584,24.102 0,9.443 -3.241,17.618 -9.584,24.384 C 16.914,65.26 9.162,68.642 0,68.642 c -9.021,0 -16.772,-3.382 -23.115,-10.148 -6.343,-6.766 -9.585,-14.8 -9.585,-24.244 0,-9.442 3.242,-17.477 9.585,-24.102 C -16.772,3.523 -9.021,0.141 0,0.141 Z m 0,81.328 c 12.827,0 23.82,-4.652 32.841,-13.813 C 41.861,58.353 46.373,47.218 46.373,34.25 46.373,21.425 41.861,10.431 32.841,1.268 23.82,-7.894 12.968,-12.403 0.142,-12.403 c -12.828,0 -23.68,4.65 -32.701,13.813 -9.02,9.161 -13.532,20.155 -13.532,32.983 0,12.965 4.512,24.101 13.532,33.262 9.021,9.163 19.873,13.813 32.701,13.813 z" /></g><path
           id="path28"
           style="fill:#ffffff;fill-opacity:1;fill-rule:nonzero;stroke:none"
           d="m 683.358,340 h 12.686 v -90.348 h -12.686 z" /><g
           transform="translate(734.0986,319.2805)"
           id="g30"><path
             id="path32"
             style="fill:#ffffff;fill-opacity:1;fill-rule:nonzero;stroke:none"
             d="M 0,0 V -69.628 H -12.827 V 20.72 H 0.985 L 51.023,-49.332 V 20.72 H 63.709 V -69.628 H 49.896 Z" /></g><g
           transform="translate(277.0503,441.5305)"
           id="g34"><path
             id="path36"
             style="fill:#ffffff;fill-opacity:1;fill-rule:nonzero;stroke:none"
             d="M 0,0 V -6.301 C 0,-18.81 10.14,-28.95 22.648,-28.95 h 17.688 c 12.508,0 16.997,-3.839 16.997,-16.347 v -246.958 c 0,-12.508 10.14,-22.649 22.648,-22.649 h 4.083 c 12.508,0 22.648,10.141 22.648,22.649 V 0 c 0,12.508 -10.14,22.648 -22.648,22.648 H 22.648 C 10.14,22.648 0,12.508 0,0" /></g><g
           transform="translate(236.542,253.1892)"
           id="g38"><path
             id="path40"
             style="fill:#ffffff;fill-opacity:1;fill-rule:nonzero;stroke:none"
             d="m 0,0 c 0.192,-23.689 -6.33,-42.375 -19.388,-55.539 -12.591,-12.695 -31.113,-19.689 -52.144,-19.689 -13.51,0 -26.102,3.351 -36.828,9.5 l 86.094,208.34 c 1.007,-0.885 2.046,-1.737 2.987,-2.687 C -6.293,126.836 0.192,108.319 0,84.847 Z m -142.115,0.045 v 84.846 c -0.197,23.6 6.293,42.212 19.289,55.315 12.441,12.542 30.657,19.449 51.294,19.449 17.21,0 32.679,-4.74 44.667,-13.381 l -86.349,-208.95 c -3.202,2.227 -6.238,4.677 -8.99,7.453 -13.224,13.338 -20.108,32.433 -19.911,55.268 M 17.397,175.774 c -22.237,22.381 -54.475,35.216 -88.457,35.216 -34.071,0 -66.331,-12.88 -88.508,-35.338 -21.961,-22.245 -33.331,-52.714 -32.878,-88.046 V -2.612 c -0.453,-35.677 10.961,-66.337 33.005,-88.665 22.144,-22.425 54.354,-35.286 88.381,-35.286 33.933,0 66.126,12.819 88.336,35.167 22.171,22.314 33.773,53.004 33.546,88.711 V 87.57 c 0.227,35.467 -11.331,65.97 -33.425,88.204" /></g></g></g></g></svg>